# xmcd CD database file
#
# Track frame offsets:
#	150
#	44377
#	78312
#	93832
#	117645
#	144122
#	169445
#
# Disc length: 2530 seconds
#
# Revision: 6
# Processed by: cddbd v1.5.2PL0 Copyright (c) Steve Scherf et al.
# Submitted via: CDex 1.51
#
DISCID=5609e007
DTITLE=Buddy Guy, Junior Wells and Junior Mance - Buddy And The Juniors
DYEAR=1970
DGENRE=Blues
TTITLE0=Talkin' 'Bout Women Obviously
TTITLE1=A Motif Is Just A Riff
TTITLE2=Buddy's Blues
TTITLE3=Hoochie Coochie Man
TTITLE4=Five Long Years
TTITLE5=Rock Me Mama
TTITLE6=Ain't No Need
EXTD=YEAR: 1970
EXTT0=
EXTT1=
EXTT2=
EXTT3=
EXTT4=
EXTT5=
EXTT6=
PLAYORDER=
